# xmcd CD database file
#
# Track frame offsets:
#	150
#	55918
#	75683
#	109500
#	128700
#	148500
#	174075
#	204375
#
# Disc length: 2953 seconds
#
# Revision: 0
# Processed by: cddbd v1.5.2PL0 Copyright (c) Steve Scherf et al.
# Submitted via: CDex 1.70beta2
#
DISCID=600b8708
DTITLE=Nasuno Mitsuru - Prequel Oct. 1998 - Mar. 1999 and 1
DYEAR=2008
DGENRE=Jazz
TTITLE0=The Next Minute
TTITLE1=Before the Rain
TTITLE2=Motai
TTITLE3=Karamel
TTITLE4=The Mists
TTITLE5=SB
TTITLE6=Beyond the Cross
TTITLE7=Mobile Syndrome Ver. 0302
EXTD=YEAR: 2008
EXTT0=
EXTT1=
EXTT2=
EXTT3=
EXTT4=
EXTT5=
EXTT6=
EXTT7=
PLAYORDER=
